# xmcd
#
# Track frame offsets:
#	150
#	15983
#	30132
#	44224
#	59272
#	74408
#	92111
#	106619
#	123828
#	137288
#	150045
#	168313
#	184441
#	201846
#	218787
#	234843
#	254052
#	268099
#
# Disc length: 3789 seconds
#
# Revision: 1
# Processed by: cddbd v1.5.2PL0 Copyright (c) Steve Scherf et al.
# Submitted via: audiograbber 1.83.01
#
DISCID=ec0ecb12
DTITLE=Various Artist - Promo Only Country March 2014
DYEAR=2014
DGENRE=Country
TTITLE0=Parmalee - Close Your Eyes
TTITLE1=Lucy Hale - You Sound Good To Me
TTITLE2=Jake Owen - Beachin'
TTITLE3=Rascal Flatts - Rewind
TTITLE4=Kayla Calabrese - This Is How It Feels
TTITLE5=Smokey River Boys - I'm So Lonesome I Could Cry
TTITLE6=Blair Mathews - It's About Us
TTITLE7=Adrianna Freeman - No More
TTITLE8=Ronnie Milsap - Summer Number Seventeen
TTITLE9=James Robert Webb - Long Hot Winter
TTITLE10=Maggie Rose - Looking Back Now
TTITLE11=Eric Church - Give Me Back My Hometown (Radio Edit)
TTITLE12=Katie Armiger - Safe
TTITLE13=Joe Nichols - Yeah
TTITLE14=Natalie Stovall And The Drive - Baby Come On With It
TTITLE15=JJ Lawhorn - Good Ol' Boys Like Us
TTITLE16=Easton Corbin - Clockwork
TTITLE17=Swon Brothers - Later On (Album Version)
EXTD=
EXTT0=
EXTT1=
EXTT2=
EXTT3=
EXTT4=
EXTT5=
EXTT6=
EXTT7=
EXTT8=
EXTT9=
EXTT10=
EXTT11=
EXTT12=
EXTT13=
EXTT14=
EXTT15=
EXTT16=
EXTT17=
PLAYORDER=
